<svg width="128" height="55" viewBox="0 0 128 55" fill="none" xmlns="http://www.w3.org/2000/svg">
<path d="M33.8301 7.96493C31.6035 7.96493 29.4626 8.73567 27.8354 10.2772C25.095 12.8463 21.4126 12.7607 19.1003 10.2772C16.8737 7.96493 16.8737 4.28249 19.1003 1.88461C21.5838 -0.598894 24.9237 -0.598895 27.9211 1.97025C31.6035 5.05323 36.9131 4.96759 40.5099 1.88461C43.336 -0.598894 46.5902 -0.598894 49.0737 1.71334C51.5572 4.02557 51.5572 7.53674 48.9881 10.5341C45.9051 14.1309 45.9051 19.5261 48.9881 23.1229C51.4716 26.0346 51.4716 29.5458 48.9881 31.9436C46.5902 34.1702 42.9078 34.0846 40.5955 31.858C38.112 29.4601 38.1977 25.949 40.6812 23.1229C42.9934 20.4681 43.7641 15.5867 42.137 12.5894C40.6812 9.33514 37.3413 7.53674 33.8301 7.96493Z" fill="url(#paint0_linear)"/>
<path d="M34.6866 47.0161C36.9132 47.0161 39.0542 46.2454 40.6813 44.7039C43.4217 42.1347 47.1042 42.2204 49.4164 44.7039C51.643 47.0161 51.643 50.6986 49.4164 53.0964C46.9329 55.5799 43.593 55.5799 40.5957 53.0108C36.9132 49.9278 31.6036 50.0135 28.0068 53.0964C25.1808 55.5799 21.9265 55.5799 19.443 53.2677C16.9595 50.9555 16.9595 47.4443 19.5287 44.447C22.6116 40.8502 22.6116 35.455 19.5287 31.8581C17.0451 28.9464 17.0451 25.4353 19.5287 23.0374C21.9265 20.8108 25.609 20.8965 27.9212 23.123C30.4047 25.5209 30.3191 29.0321 27.8356 31.8581C25.5233 34.4273 24.7526 39.3943 26.3797 42.3917C27.9212 45.5603 31.1755 47.3587 34.6866 47.0161Z" fill="url(#paint1_linear)"/>
<path d="M53.4414 26.805C53.6127 24.664 52.7563 22.5231 51.2148 20.9816C48.9026 18.755 48.817 14.9869 51.1292 12.6747C51.2148 12.589 51.3005 12.5034 51.3861 12.4178C53.6983 10.1912 57.3808 10.1055 59.7787 12.2465C62.2622 14.4731 62.4334 18.1555 60.2925 20.639C60.2069 20.7247 60.2068 20.7247 60.1212 20.8103C57.5521 23.6364 57.2095 26.7193 57.8946 30.1449C58.2372 31.5151 59.0079 32.7997 60.0356 33.8273C62.4334 36.5677 62.4334 40.0789 60.1212 42.3911C57.809 44.7034 54.2122 44.789 51.3005 42.2199C47.7893 39.1369 42.5654 39.1369 38.9686 42.1342C35.8856 44.789 32.3744 44.789 29.9766 42.2199C27.75 39.9076 27.75 36.2252 29.9766 33.8273C32.4601 31.2582 35.8856 31.2582 38.9686 33.9129C42.7366 37.2528 48.5601 36.9959 51.9856 33.2278C53.1845 31.772 53.5271 30.7443 53.4414 26.805Z" fill="url(#paint2_linear)"/>
<path d="M13.0199 10.7055C14.5614 10.6199 15.9316 11.4763 17.2162 12.5896C20.813 15.7582 26.2082 15.7582 29.805 12.5039C32.7167 10.0204 36.2279 10.0204 38.5401 12.5896C40.681 14.9874 40.681 18.5842 38.5401 20.9821C36.0566 23.4656 32.6311 23.38 29.7194 20.8965C26.1226 17.8135 20.3848 17.8135 17.2162 20.9821C13.7907 24.4076 13.705 29.8885 17.0449 33.7422C19.4428 36.5683 19.4428 40.3363 17.0449 42.5629C14.7327 44.7895 11.0502 44.7895 8.65236 42.6486C6.08321 40.2507 5.99757 36.8252 8.48108 33.8278C11.6497 30.1454 11.6497 24.7502 8.48108 21.0677C6.59704 18.9268 5.99757 16.7002 7.28214 14.131C8.3098 11.9045 10.622 10.5342 13.0199 10.7055Z" fill="url(#paint3_linear)"/>
<path d="M68 27.4047C68 29.6313 66.116 31.4297 63.8894 31.4297C61.7484 31.344 60.1213 29.5456 60.1213 27.4903C60.0356 25.3494 61.7484 23.551 63.8894 23.4653C63.975 23.4653 64.0606 23.4653 64.1463 23.4653C66.2872 23.6366 68 25.3494 68 27.4047Z" fill="url(#paint4_linear)"/>
<path d="M3.94276 31.5155C1.8018 31.5155 0.00339942 29.8027 0.00339942 27.6618C0.00339942 27.5761 0.00339942 27.4905 0.00339942 27.4905C-0.0822388 25.3495 1.45925 23.5511 3.60021 23.4655C3.68584 23.4655 3.85712 23.4655 3.94276 23.4655C6.16935 23.3798 8.05339 25.0926 8.13903 27.3192C8.22466 29.5458 6.5119 31.4298 4.28531 31.5155C4.19967 31.5155 4.02839 31.5155 3.94276 31.5155Z" fill="url(#paint5_linear)"/>
<path d="M3.16265 26.9325C4.15625 26.6236 4.81373 25.8972 4.63118 25.3101C4.44862 24.7229 3.49517 24.4974 2.50157 24.8064C1.50797 25.1153 0.850485 25.8417 1.03304 26.4288C1.21559 27.0159 2.16905 27.2415 3.16265 26.9325Z" fill="#F5F5F5"/>
<path d="M63.7927 26.9228C64.7863 26.6138 65.4437 25.8874 65.2612 25.3003C65.0786 24.7132 64.1252 24.4877 63.1316 24.7966C62.138 25.1055 61.4805 25.8319 61.6631 26.419C61.8456 27.0062 62.7991 27.2317 63.7927 26.9228Z" fill="#F5F5F5"/>
<path d="M11.662 14.9156C12.9266 14.5224 13.7582 13.5813 13.5195 12.8135C13.2808 12.0457 12.0621 11.7421 10.7975 12.1352C9.53293 12.5284 8.7013 13.4696 8.94002 14.2374C9.17874 15.0051 10.3974 15.3088 11.662 14.9156Z" fill="#F5F5F5"/>
<path d="M34.0107 14.9068C35.2753 14.5136 36.1069 13.5725 35.8682 12.8047C35.6295 12.0369 34.4108 11.7333 33.1463 12.1265C31.8817 12.5196 31.05 13.4608 31.2888 14.2286C31.5275 14.9964 32.7462 15.3 34.0107 14.9068Z" fill="#F5F5F5"/>
<path d="M11.2372 36.9244C12.5017 36.5312 13.3334 35.5901 13.0946 34.8223C12.8559 34.0545 11.6373 33.7508 10.3727 34.144C9.10809 34.5372 8.27647 35.4784 8.51519 36.2461C8.75391 37.0139 9.97258 37.3176 11.2372 36.9244Z" fill="#F5F5F5"/>
<path d="M22.4588 25.9762C23.7234 25.583 24.555 24.6418 24.3163 23.874C24.0775 23.1063 22.8589 22.8026 21.5943 23.1958C20.3297 23.589 19.4981 24.5301 19.7368 25.2979C19.9755 26.0657 21.1942 26.3694 22.4588 25.9762Z" fill="#F5F5F5"/>
<path d="M22.4546 4.39609C23.7192 4.0029 24.5508 3.06175 24.3121 2.29397C24.0734 1.52619 22.8547 1.22252 21.5901 1.61571C20.3255 2.0089 19.4939 2.95005 19.7326 3.71783C19.9713 4.48561 21.19 4.78928 22.4546 4.39609Z" fill="#F5F5F5"/>
<path d="M44.5474 4.38291C45.812 3.98972 46.6436 3.04857 46.4049 2.28079C46.1662 1.51301 44.9475 1.20934 43.6829 1.60253C42.4183 1.99571 41.5867 2.93686 41.8254 3.70464C42.0642 4.47243 43.2828 4.7761 44.5474 4.38291Z" fill="#F5F5F5"/>
<path d="M44.5499 25.9625C45.8145 25.5693 46.6461 24.6282 46.4074 23.8604C46.1687 23.0926 44.95 22.7889 43.6854 23.1821C42.4208 23.5753 41.5892 24.5165 41.8279 25.2842C42.0667 26.052 43.2853 26.3557 44.5499 25.9625Z" fill="#F5F5F5"/>
<path d="M33.248 36.505C34.5126 36.1118 35.3442 35.1706 35.1055 34.4029C34.8668 33.6351 33.6481 33.3314 32.3835 33.7246C31.119 34.1178 30.2873 35.0589 30.5261 35.8267C30.7648 36.5945 31.9834 36.8982 33.248 36.505Z" fill="#F5F5F5"/>
<path d="M22.7866 47.7975C24.0512 47.4043 24.8828 46.4631 24.6441 45.6953C24.4054 44.9276 23.1867 44.6239 21.9221 45.0171C20.6575 45.4103 19.8259 46.3514 20.0646 47.1192C20.3034 47.887 21.522 48.1906 22.7866 47.7975Z" fill="#F5F5F5"/>
<path d="M44.529 47.4605C45.7936 47.0674 46.6252 46.1262 46.3865 45.3584C46.1478 44.5906 44.9291 44.287 43.6645 44.6802C42.3999 45.0734 41.5683 46.0145 41.807 46.7823C42.0458 47.5501 43.2644 47.8537 44.529 47.4605Z" fill="#F5F5F5"/>
<path d="M54.6551 36.4908C55.9196 36.0976 56.7513 35.1565 56.5126 34.3887C56.2738 33.6209 55.0552 33.3172 53.7906 33.7104C52.526 34.1036 51.6944 35.0448 51.9331 35.8126C52.1718 36.5803 53.3905 36.884 54.6551 36.4908Z" fill="#F5F5F5"/>
<path d="M54.6509 14.9122C55.9155 14.519 56.7471 13.5779 56.5084 12.8101C56.2697 12.0423 55.051 11.7386 53.7864 12.1318C52.5218 12.525 51.6902 13.4662 51.9289 14.2339C52.1676 15.0017 53.3863 15.3054 54.6509 14.9122Z" fill="#F5F5F5"/>
<path d="M78 22.0608V11.6278H80.3053V20.043H84.3397V22.0608H78Z" fill="black"/>
<path d="M89.0035 22.2402C88.4171 22.2402 87.8913 22.1455 87.4262 21.9562C86.9712 21.7669 86.5819 21.4928 86.2584 21.1341C85.9449 20.7754 85.7023 20.3419 85.5304 19.8337C85.3585 19.3255 85.2725 18.7575 85.2725 18.1297C85.2725 17.502 85.3585 16.934 85.5304 16.4258C85.7023 15.9176 85.9449 15.4891 86.2584 15.1403C86.5819 14.7816 86.9712 14.5076 87.4262 14.3182C87.8913 14.1289 88.4171 14.0343 89.0035 14.0343C89.59 14.0343 90.1107 14.1289 90.5657 14.3182C91.0308 14.5076 91.4201 14.7816 91.7335 15.1403C92.0571 15.4891 92.3048 15.9176 92.4767 16.4258C92.6486 16.934 92.7345 17.502 92.7345 18.1297C92.7345 18.7575 92.6486 19.3255 92.4767 19.8337C92.3048 20.3419 92.0571 20.7754 91.7335 21.1341C91.4201 21.4928 91.0308 21.7669 90.5657 21.9562C90.1107 22.1455 89.59 22.2402 89.0035 22.2402ZM89.0035 20.4914C89.4484 20.4914 89.7922 20.3569 90.0349 20.0878C90.2775 19.8188 90.3989 19.4351 90.3989 18.9369V17.3376C90.3989 16.8393 90.2775 16.4557 90.0349 16.1866C89.7922 15.9176 89.4484 15.7831 89.0035 15.7831C88.5586 15.7831 88.2149 15.9176 87.9722 16.1866C87.7295 16.4557 87.6082 16.8393 87.6082 17.3376V18.9369C87.6082 19.4351 87.7295 19.8188 87.9722 20.0878C88.2149 20.3569 88.5586 20.4914 89.0035 20.4914Z" fill="black"/>
<path d="M99.0543 14.2136H101.147L98.0836 23.2715C97.8814 23.8794 97.5932 24.3278 97.2191 24.6168C96.8551 24.9057 96.3294 25.0502 95.6418 25.0502H94.2465V23.3313H95.748L96.021 22.4644L93.2303 14.2136H95.4598L96.6276 17.8756L97.204 20.1476H97.295L97.8865 17.8756L99.0543 14.2136Z" fill="black"/>
<path d="M107.965 22.0608C107.56 22.0608 107.222 21.9363 106.949 21.6871C106.686 21.438 106.519 21.1042 106.448 20.6857H106.357C106.236 21.1939 105.968 21.5825 105.553 21.8516C105.139 22.1106 104.628 22.2402 104.022 22.2402C103.223 22.2402 102.611 22.0309 102.186 21.6124C101.762 21.1939 101.549 20.6409 101.549 19.9533C101.549 19.1262 101.853 18.5134 102.459 18.1148C103.076 17.7062 103.91 17.502 104.962 17.502H106.221V17.0087C106.221 16.6301 106.12 16.3311 105.917 16.1119C105.715 15.8827 105.376 15.7681 104.901 15.7681C104.456 15.7681 104.102 15.8628 103.84 16.0521C103.577 16.2414 103.359 16.4557 103.187 16.6948L101.853 15.529C102.176 15.0606 102.581 14.6969 103.066 14.4378C103.561 14.1688 104.229 14.0343 105.068 14.0343C106.2 14.0343 107.05 14.2784 107.616 14.7667C108.182 15.2549 108.465 15.9674 108.465 16.9041V20.3419H109.208V22.0608H107.965ZM104.856 20.7006C105.23 20.7006 105.548 20.6209 105.811 20.4615C106.084 20.3021 106.221 20.043 106.221 19.6842V18.7575H105.129C104.249 18.7575 103.809 19.0515 103.809 19.6394V19.8636C103.809 20.1526 103.9 20.3668 104.082 20.5063C104.264 20.6359 104.522 20.7006 104.856 20.7006Z" fill="black"/>
<path d="M112.945 22.0608C112.176 22.0608 111.61 21.8765 111.246 21.5078C110.892 21.1391 110.715 20.606 110.715 19.9084V11H112.96V20.3419H113.961V22.0608H112.945Z" fill="black"/>
<path d="M118.023 22.0608C117.245 22.0608 116.653 21.8665 116.249 21.4779C115.854 21.0893 115.657 20.5213 115.657 19.7739V15.9325H114.535V14.2136H115.096C115.399 14.2136 115.607 14.1439 115.718 14.0044C115.829 13.8549 115.885 13.6456 115.885 13.3766V12.0911H117.902V14.2136H119.479V15.9325H117.902V20.3419H119.358V22.0608H118.023Z" fill="black"/>
<path d="M125.907 14.2136H128L124.936 23.2715C124.734 23.8794 124.446 24.3278 124.072 24.6168C123.708 24.9057 123.182 25.0502 122.495 25.0502H121.099V23.3313H122.601L122.874 22.4644L120.083 14.2136H122.313L123.48 17.8756L124.057 20.1476H124.148L124.739 17.8756L125.907 14.2136Z" fill="black"/>
<path d="M78 42.8206V32.3876H80.3053V40.8028H84.3397V42.8206H78Z" fill="black"/>
<path d="M91.8651 42.8206C91.4606 42.8206 91.1219 42.6961 90.8489 42.447C90.586 42.1978 90.4192 41.864 90.3484 41.4455H90.2574C90.1361 41.9537 89.8681 42.3423 89.4536 42.6114C89.039 42.8705 88.5284 43 87.9217 43C87.1229 43 86.5112 42.7907 86.0866 42.3722C85.6619 41.9537 85.4496 41.4007 85.4496 40.7131C85.4496 39.886 85.7529 39.2732 86.3596 38.8746C86.9763 38.4661 87.8105 38.2618 88.8621 38.2618H90.1209V37.7685C90.1209 37.3899 90.0198 37.0909 89.8176 36.8717C89.6153 36.6425 89.2766 36.5279 88.8014 36.5279C88.3565 36.5279 88.0026 36.6226 87.7397 36.8119C87.4768 37.0012 87.2594 37.2155 87.0876 37.4546L85.7529 36.2888C86.0764 35.8204 86.4809 35.4567 86.9662 35.1976C87.4617 34.9286 88.129 34.7941 88.9682 34.7941C90.1007 34.7941 90.95 35.0382 91.5162 35.5265C92.0824 36.0147 92.3656 36.7272 92.3656 37.6639V41.1017H93.1087V42.8206H91.8651ZM88.7559 41.4605C89.13 41.4605 89.4485 41.3807 89.7114 41.2213C89.9844 41.0619 90.1209 40.8028 90.1209 40.4441V39.5173H89.0289C88.1492 39.5173 87.7094 39.8113 87.7094 40.3992V40.6234C87.7094 40.9124 87.8004 41.1266 87.9824 41.2661C88.1644 41.3957 88.4222 41.4605 88.7559 41.4605Z" fill="black"/>
<path d="M94.6153 31.7598H96.86V36.2888H96.9358C97.047 35.8503 97.2998 35.4916 97.6942 35.2126C98.0986 34.9336 98.5587 34.7941 99.0743 34.7941C100.085 34.7941 100.849 35.1428 101.364 35.8404C101.88 36.5379 102.138 37.5543 102.138 38.8896C102.138 40.2248 101.88 41.2462 101.364 41.9537C100.849 42.6512 100.085 43 99.0743 43C98.8114 43 98.5637 42.9601 98.3312 42.8804C98.0986 42.8107 97.8863 42.711 97.6942 42.5815C97.5122 42.442 97.3554 42.2825 97.224 42.1032C97.0925 41.9138 96.9965 41.7146 96.9358 41.5053H96.86V42.8206H94.6153V31.7598ZM98.3312 41.2064C98.7558 41.2064 99.1047 41.0619 99.3777 40.7729C99.6608 40.4739 99.8023 40.0754 99.8023 39.5771V38.2169C99.8023 37.7187 99.6608 37.3251 99.3777 37.0361C99.1047 36.7372 98.7558 36.5877 98.3312 36.5877C97.9065 36.5877 97.5526 36.6923 97.2695 36.9016C96.9965 37.1009 96.86 37.3799 96.86 37.7386V40.0554C96.86 40.4142 96.9965 40.6982 97.2695 40.9074C97.5526 41.1067 97.9065 41.2064 98.3312 41.2064Z" fill="black"/>
<path d="M106.542 43C105.774 43 105.127 42.8804 104.601 42.6413C104.075 42.3922 103.605 42.0434 103.191 41.595L104.51 40.2796C104.793 40.5885 105.107 40.8327 105.45 41.012C105.794 41.1914 106.183 41.2811 106.618 41.2811C107.063 41.2811 107.371 41.2163 107.543 41.0868C107.715 40.9473 107.801 40.7629 107.801 40.5337C107.801 40.165 107.533 39.9458 106.997 39.8761L106.133 39.7714C104.343 39.5522 103.448 38.7451 103.448 37.35C103.448 36.9714 103.519 36.6276 103.661 36.3187C103.812 35.9998 104.02 35.7307 104.283 35.5115C104.556 35.2823 104.879 35.108 105.253 34.9884C105.637 34.8588 106.067 34.7941 106.542 34.7941C106.957 34.7941 107.321 34.824 107.634 34.8837C107.958 34.9336 108.241 35.0133 108.484 35.1229C108.736 35.2225 108.964 35.3521 109.166 35.5115C109.379 35.661 109.586 35.8304 109.788 36.0197L108.499 37.3201C108.246 37.071 107.958 36.8767 107.634 36.7372C107.321 36.5877 106.997 36.513 106.664 36.513C106.279 36.513 106.006 36.5728 105.845 36.6923C105.683 36.8119 105.602 36.9714 105.602 37.1706C105.602 37.3799 105.658 37.5443 105.769 37.6639C105.89 37.7735 106.113 37.8532 106.436 37.9031L107.331 38.0226C109.08 38.2518 109.955 39.039 109.955 40.3843C109.955 40.7629 109.874 41.1117 109.712 41.4306C109.55 41.7494 109.318 42.0284 109.015 42.2676C108.721 42.4968 108.362 42.6761 107.938 42.8057C107.523 42.9352 107.058 43 106.542 43Z" fill="black"/>
<defs>
<linearGradient id="paint0_linear" x1="82.0707" y1="17.8806" x2="-8.25191" y2="15.0889" gradientUnits="userSpaceOnUse">
<stop stop-color="#3098D4"/>
<stop offset="1" stop-color="#273986"/>
</linearGradient>
<linearGradient id="paint1_linear" x1="81.3846" y1="39.966" x2="-8.938" y2="37.1742" gradientUnits="userSpaceOnUse">
<stop stop-color="#3098D4"/>
<stop offset="1" stop-color="#273986"/>
</linearGradient>
<linearGradient id="paint2_linear" x1="1.30856" y1="0.304401" x2="59.8936" y2="36.9233" gradientUnits="userSpaceOnUse">
<stop stop-color="#99C9FF"/>
<stop offset="1" stop-color="#33A9FF"/>
</linearGradient>
<linearGradient id="paint3_linear" x1="-20.4054" y1="0.217225" x2="38.3317" y2="36.7778" gradientUnits="userSpaceOnUse">
<stop stop-color="#99C9FF"/>
<stop offset="1" stop-color="#33A9FF"/>
</linearGradient>
<linearGradient id="paint4_linear" x1="81.7536" y1="28.0265" x2="-8.56915" y2="25.2433" gradientUnits="userSpaceOnUse">
<stop stop-color="#3098D4"/>
<stop offset="1" stop-color="#273986"/>
</linearGradient>
<linearGradient id="paint5_linear" x1="-6.55434" y1="20.9609" x2="7.60295" y2="29.8825" gradientUnits="userSpaceOnUse">
<stop stop-color="#99C9FF"/>
<stop offset="1" stop-color="#33A9FF"/>
</linearGradient>
</defs>
</svg>
